<svg height="800" width="800" xmlns="http://www.w3.org/2000/svg" viewBox="-2 -2 68 68" xml:space="preserve"><style>.st1{opacity:.2}.st2{fill:#231f20}.st4{fill:#fff}</style><g id="Layer_1"><circle cx="32" cy="32" r="32" style="fill:#77b3d4"/><g class="st1"><path class="st2" d="M32 41.5c3.3 0 6-2.7 6-6v-18c0-3.3-2.7-6-6-6s-6 2.7-6 6v18c0 3.3 2.7 6 6 6"/></g><g class="st1"><path class="st2" d="M32 48.2c-7.2 0-13-5.8-13-13v-3.8c0-.8.7-1.5 1.5-1.5s1.5.7 1.5 1.5v3.8c0 5.5 4.5 10 10 10s10-4.5 10-10v-3.8c0-.8.7-1.5 1.5-1.5s1.5.7 1.5 1.5v3.8c0 7.2-5.8 13-13 13"/></g><g class="st1"><path class="st2" d="M32 55c-.8 0-1.5-.7-1.5-1.5v-6c0-.8.7-1.5 1.5-1.5s1.5.7 1.5 1.5v6c0 .8-.7 1.5-1.5 1.5"/></g><g class="st1"><path class="st2" d="M37 56H27c-.8 0-1.5-.7-1.5-1.5S26.2 53 27 53h10c.8 0 1.5.7 1.5 1.5S37.8 56 37 56"/></g><path d="M32 39.5c3.3 0 6-2.7 6-6v-18c0-3.3-2.7-6-6-6s-6 2.7-6 6v18c0 3.3 2.7 6 6 6" style="fill:#4f5d73"/><path class="st4" d="M32 46.2c-7.2 0-13-5.8-13-13v-3.8c0-.8.7-1.5 1.5-1.5s1.5.7 1.5 1.5v3.8c0 5.5 4.5 10 10 10s10-4.5 10-10v-3.8c0-.8.7-1.5 1.5-1.5s1.5.7 1.5 1.5v3.8c0 7.2-5.8 13-13 13"/><path class="st4" d="M32 53c-.8 0-1.5-.7-1.5-1.5v-6c0-.8.7-1.5 1.5-1.5s1.5.7 1.5 1.5v6c0 .8-.7 1.5-1.5 1.5"/><path class="st4" d="M37 54H27c-.8 0-1.5-.7-1.5-1.5S26.2 51 27 51h10c.8 0 1.5.7 1.5 1.5S37.8 54 37 54"/></g><g id="Layer_2"/></svg>
